# xmcd CD database file
#
# Track frame offsets:
#	150
#	13199
#	27889
#	41000
#	54954
#	69738
#	82483
#	96552
#	108938
#	120676
#	133272
#	144853
#	156379
#	170241
#	182420
#	196930
#	209985
#	223504
#	237289
#	250980
#	263844
#	275445
#	289599
#	301786
#	312392
#
# Disc length: 4334 seconds
#
# Revision: 1
# Processed by: cddbd v1.5.2PL0 Copyright (c) Steve Scherf et al.
# Submitted via: CDex 1.70beta2
#
DISCID=8210ec19
DTITLE=Ernest Tubb - Texas Troubadour  -  Vol. 3
DYEAR=2003
DGENRE=Country
TTITLE0=Blue Eyed Elaine
TTITLE1=I'll Get Along Somehow
TTITLE2=Swell San Angelo
TTITLE3=I'll Never Cry Over You
TTITLE4=My Baby And My Wife
TTITLE5=Please Remember Me
TTITLE6=Our Baby's Book
TTITLE7=First Year Blues
TTITLE8=Wasting My Life Away
TTITLE9=When The World Has Turned You Down
TTITLE10=I'll Always Be Glad To Take You Back
TTITLE11=I Ain't Goin' Honky Tonkin' Anymore
TTITLE12=I've Really Learned A Lot
TTITLE13=I'm Wondering How
TTITLE14=I Know What It Means To Be Lonely
TTITLE15=Are You Waiting Just For Me
TTITLE16=Answer To Walking The Floor Over You
TTITLE17=There's A Little Bit Of Everything In Texas
TTITLE18=Should I Come Back Home To You
TTITLE19=You'll Want Me Back (But I Won't Care)
TTITLE20=There's Gonna Be Some Changes Made Around Here
TTITLE21=I'm Free At Last
TTITLE22=Wondering If You're Wondering Too
TTITLE23=There's Nothing On My Mind
TTITLE24=Don't Brush Them On Me
EXTD=YEAR: 2003
EXTT0=
EXTT1=
EXTT2=
EXTT3=
EXTT4=
EXTT5=
EXTT6=
EXTT7=
EXTT8=
EXTT9=
EXTT10=
EXTT11=
EXTT12=
EXTT13=
EXTT14=
EXTT15=
EXTT16=
EXTT17=
EXTT18=
EXTT19=
EXTT20=
EXTT21=
EXTT22=
EXTT23=
EXTT24=
PLAYORDER=
